<svg width="35" height="35" viewBox="0 0 35 35" fill="none" xmlns="http://www.w3.org/2000/svg">
<g clip-path="url(#clip0_501_2)">
<path d="M15.7161 17.8062C16.0948 18.1145 16.0948 18.6775 15.7161 18.9859L12.3147 21.7542C11.7954 22.1771 11.001 21.8206 11.001 21.1646L11.0005 19H4.996C4.7196 19 4.496 18.7764 4.496 18.5C4.496 18.2236 4.7196 18 4.996 18H11.0005L11 15.627C11 14.9708 11.7944 14.6143 12.314 15.0372L15.7161 17.8062ZM25.6363 6H25.6324C24.1314 6 22.7144 6.5908 21.6412 7.6631C20.5826 8.7217 19.9996 10.1152 20.0001 11.5869V15.0017L19.7591 15.0015C19.0691 15.001 18.5093 15.5597 18.5083 16.2497L18.5019 20.748C18.5009 21.4387 19.0603 21.9993 19.7511 21.9998L20.0001 22V29H21.0001V11.5869C20.9996 10.3818 21.4786 9.2402 22.3482 8.3701C23.2325 7.4863 24.3985 7 25.6324 7H30.0001V6H25.6363Z" fill="#333333"/>
</g>
<defs>
<clipPath id="clip0_501_2">
<rect width="35" height="35" fill="white"/>
</clipPath>
</defs>
</svg>
