<svg width="35" height="35" viewBox="0 0 35 35" fill="none" xmlns="http://www.w3.org/2000/svg">
<g clip-path="url(#clip0_108_28)">
<path d="M29 6.01V7H15.2435C10.7402 6.9647 7.05542 10.576 7.00001 15.0791V29H6.01311V15.0791C6.06358 10.0285 10.1924 5.97156 15.2431 6.0098L29 6.01ZM27.9927 14.4943V23.4924C27.9891 26.5285 25.5288 28.9888 22.4927 28.9924H14.5048C11.4687 28.9888 9.00839 26.5285 9.00481 23.4924V14.4941C9.00889 11.4592 11.4699 9.00083 14.5048 9H22.4926C25.5275 9.00083 27.9885 11.4592 27.9927 14.4941V14.4943ZM27.0001 14.4943C26.9939 12.0087 24.9783 9.99644 22.4927 9.9943H14.5048C12.0198 9.99661 10.0051 12.0091 10 14.4941V23.4922C10.0044 25.9788 12.0182 27.994 14.5048 28H22.4926C24.9797 27.9942 26.9944 25.9793 27.0001 23.4922V14.4943ZM14.5 19.75C12.7051 19.75 11.25 21.2051 11.25 23C11.25 24.7949 12.7051 26.25 14.5 26.25C16.2949 26.25 17.75 24.7949 17.75 23C17.75 21.2051 16.2949 19.75 14.5 19.75ZM14.45 11.75C13.5984 11.754 12.7843 12.101 12.1915 12.7125C11.5988 13.3241 11.2774 14.1486 11.3 15C11.2775 15.8513 11.5988 16.6759 12.1916 17.2874C12.7843 17.899 13.5984 18.2459 14.45 18.25C16.2449 18.25 17.7 16.7949 17.7 15C17.7 13.2051 16.2449 11.75 14.45 11.75ZM22.5 15.75C20.7051 15.75 19.25 17.2051 19.25 19C19.25 20.7949 20.7051 22.25 22.5 22.25C24.2949 22.25 25.75 20.7949 25.75 19C25.75 17.2051 24.2949 15.75 22.5 15.75ZM22.5 23.5C21.6716 23.5 21 24.1716 21 25C21 25.8284 21.6716 26.5 22.5 26.5C23.3284 26.5 24 25.8284 24 25C24 24.1716 23.3284 23.5 22.5 23.5ZM21 13C21 12.1716 21.6716 11.5 22.5 11.5C23.3284 11.5 24 12.1716 24 13C24 13.8284 23.3284 14.5 22.5 14.5C21.6716 14.5 21 13.8284 21 13ZM22 13C22 13.2761 22.2239 13.5 22.5 13.5C22.7761 13.5 23 13.2761 23 13C23 12.7239 22.7761 12.5 22.5 12.5C22.224 12.5003 22.0003 12.724 22 13Z" fill="#333333"/>
</g>
<defs>
<clipPath id="clip0_108_28">
<rect width="35" height="35" fill="white"/>
</clipPath>
</defs>
</svg>
