<svg width="35" height="35" viewBox="0 0 35 35" fill="none" xmlns="http://www.w3.org/2000/svg">
<g clip-path="url(#clip0_501_8)">
<path d="M24.4999 29H10.4999C8.01849 29 5.99989 26.9814 5.99989 24.5V10.5C5.99989 8.0186 8.01849 6 10.4999 6H24.4999C26.9813 6 28.9999 8.0186 28.9999 10.5V24.5C28.9999 26.9814 26.9813 29 24.4999 29ZM10.4999 7C8.57019 7 6.99989 8.5703 6.99989 10.5V24.5C6.99989 26.4297 8.57019 28 10.4999 28H24.4999C26.4296 28 27.9999 26.4297 27.9999 24.5V10.5C27.9999 8.5703 26.4296 7 24.4999 7H10.4999ZM13.2816 12.4814H14.4955L16.2113 17.414H15.1244L14.7582 16.2177H13.0189L12.6527 17.414H11.5697L13.2816 12.4814ZM13.2543 15.4453H14.5229L13.9213 13.4658H13.8598L13.2543 15.4453ZM17.7094 13.456H17.6469L16.4379 14.2968V13.3671L17.7123 12.4814H18.7406V17.414H17.7094V13.456ZM22.2641 13.3603V13.3017H19.7758V12.4785H23.3031V13.3125L21.2426 17.4141H20.1625L22.2641 13.3603ZM13.8155 19.9423H12.1983V23.9941H12.9229V22.6552H13.8155C14.6378 22.6552 15.1934 22.1103 15.1934 21.3017V21.2958C15.1934 20.4843 14.6377 19.9423 13.8155 19.9423ZM14.461 21.3046C14.461 21.79 14.1573 22.0712 13.6387 22.0712H12.9229V20.5351H13.6387C14.1573 20.5351 14.461 20.8134 14.461 21.2988V21.3046ZM18.0264 22.3603C18.5069 22.1855 18.7901 21.7421 18.7901 21.206V21.2001C18.7901 20.4286 18.2676 19.9423 17.3975 19.9423H15.7608V23.9941H16.4854V22.4697H17.2881L18.082 23.9941H18.9111L18.0264 22.3603ZM17.3213 21.914H16.4854V20.5292H17.3077C17.7677 20.5292 18.046 20.7929 18.046 21.2177V21.2226C18.046 21.6581 17.7793 21.914 17.3213 21.914ZM21.2979 19.8417C20.1211 19.8417 19.3799 20.6581 19.3799 21.9638V21.9697C19.3799 23.2724 20.1104 24.0957 21.2979 24.0957C22.4795 24.0957 23.2129 23.2725 23.2129 21.9697V21.9638C23.2129 20.6581 22.4775 19.8417 21.2979 19.8417ZM22.4747 21.9696C22.4747 22.8798 22.0196 23.4686 21.2979 23.4686C20.5674 23.4686 20.1182 22.8797 20.1182 21.9696V21.9637C20.1182 21.0487 20.5791 20.4676 21.2979 20.4676C22.0167 20.4676 22.4747 21.0487 22.4747 21.9637V21.9696Z" fill="#333333"/>
</g>
<defs>
<clipPath id="clip0_501_8">
<rect width="35" height="35" fill="white"/>
</clipPath>
</defs>
</svg>
