<svg width="35" height="35" viewBox="0 0 35 35" fill="none" xmlns="http://www.w3.org/2000/svg">
<g clip-path="url(#clip0_501_11)">
<path d="M26 13C28.4852 13 30.5 15.0147 30.5 17.5C30.5 19.9853 28.4852 22 26 22H8C5.5148 22 3.5 19.9853 3.5 17.5C3.5 15.0147 5.5148 13 8 13H26ZM26 12H8C4.9673 12 2.5 14.4673 2.5 17.5C2.5 20.5327 4.9673 23 8 23H26C29.0327 23 31.5 20.5327 31.5 17.5C31.5 14.4673 29.0327 12 26 12ZM26.5 17.5C26.5 17.2239 26.2761 17 26 17H8C7.7239 17 7.5 17.2239 7.5 17.5C7.5 17.7761 7.7239 18 8 18H26C26.2761 18 26.5 17.7761 26.5 17.5Z" fill="#333333"/>
</g>
<defs>
<clipPath id="clip0_501_11">
<rect width="35" height="35" fill="white"/>
</clipPath>
</defs>
</svg>
